<svg width="772" height="250" viewBox="0 0 772 250" fill="none" xmlns="http://www.w3.org/2000/svg">
<rect width="772" height="250" fill="#0088CC"/>
<rect x="20" y="20" width="210" height="210" rx="20" fill="white"/>
<path d="M125 60C86.6 60 55 91.6 55 130C55 168.4 86.6 200 125 200C163.4 200 195 168.4 195 130C195 91.6 163.4 60 125 60Z" fill="#0088CC"/>
<path d="M125 76C94.8 76 72 98.8 72 130C72 161.2 94.8 184 125 184C156.2 184 179 161.2 179 130C179 98.8 156.2 76 125 76Z" fill="white"/>
<path d="M125 92C103.8 92 88 107.8 88 130C88 152.2 103.8 168 125 168C147.2 168 163 152.2 163 130C163 107.8 147.2 92 125 92Z" fill="#0088CC"/>
<path d="M125 108C112.8 108 104 116.8 104 130C104 143.2 112.8 152 125 152C137.2 152 146 143.2 146 130C146 116.8 137.2 108 125 108Z" fill="white"/>
<path d="M125 124C120.8 124 120 124.8 120 130C120 135.2 120.8 136 125 136C129.2 136 130 135.2 130 130C130 124.8 129.2 124 125 124Z" fill="#0088CC"/>
<text x="260" y="80" font-family="Arial, sans-serif" font-size="32" font-weight="bold" fill="white">WP Telegram Post Notifier</text>
<text x="260" y="110" font-family="Arial, sans-serif" font-size="16" fill="white">Send WordPress notifications to Telegram channels</text>
<text x="260" y="140" font-family="Arial, sans-serif" font-size="14" fill="white">• Advanced templating • Routing rules • Async processing</text>
<text x="260" y="160" font-family="Arial, sans-serif" font-size="14" fill="white">• Comprehensive logging • Health monitoring • Gutenberg integration</text>
</svg>
