<svg width="256" height="256" viewBox="0 0 256 256" fill="none" xmlns="http://www.w3.org/2000/svg">
<rect width="256" height="256" rx="32" fill="#0088CC"/>
<path d="M128 48C89.6 48 58 79.6 58 118C58 156.4 89.6 188 128 188C166.4 188 198 156.4 198 118C198 79.6 166.4 48 128 48Z" fill="white"/>
<path d="M128 64C96.8 64 72 88.8 72 120C72 151.2 96.8 176 128 176C159.2 176 184 151.2 184 120C184 88.8 159.2 64 128 64Z" fill="#0088CC"/>
<path d="M128 80C104.8 80 88 96.8 88 120C88 143.2 104.8 160 128 160C151.2 160 168 143.2 168 120C168 96.8 151.2 80 128 80Z" fill="white"/>
<path d="M128 96C112.8 96 104 104.8 104 120C104 135.2 112.8 144 128 144C143.2 144 152 135.2 152 120C152 104.8 143.2 96 128 96Z" fill="#0088CC"/>
<path d="M128 112C120.8 112 120 112.8 120 120C120 127.2 120.8 128 128 128C135.2 128 136 127.2 136 120C136 112.8 135.2 112 128 112Z" fill="white"/>
</svg>
